<svg width="39" height="51" viewBox="0 0 39 51" fill="none" xmlns="http://www.w3.org/2000/svg">
<path d="M7.04046 11.5607C7.46802 12.202 8.4289 12.1422 8.7736 11.4528C9.10733 10.7853 8.62197 10 7.87572 10C7.07395 10 6.59572 10.8936 7.04046 11.5607Z" stroke="#73C9D6" stroke-width="4"/>
<path d="M13.5405 11.5607C13.968 12.202 14.9289 12.1422 15.2736 11.4528C15.6073 10.7853 15.122 10 14.3757 10C13.5739 10 13.0957 10.8936 13.5405 11.5607Z" stroke="#73C9D6" stroke-width="4"/>
<path d="M23.5405 30.5607C23.968 31.202 24.9289 31.1422 25.2736 30.4528C25.6073 29.7853 25.122 29 24.3757 29C23.5739 29 23.0957 29.8936 23.5405 30.5607Z" stroke="#73C9D6" stroke-width="4"/>
<path d="M30.0405 30.5607C30.468 31.202 31.4289 31.1422 31.7736 30.4528C32.1073 29.7853 31.622 29 30.8757 29C30.0739 29 29.5957 29.8936 30.0405 30.5607Z" stroke="#73C9D6" stroke-width="4"/>
<path d="M19 41V28.5C19 24.0817 22.5817 20.5 27 20.5H28.5C32.9183 20.5 36.5 24.0817 36.5 28.5V41C36.5 45.4183 32.9183 49 28.5 49H27C22.5817 49 19 45.4183 19 41ZM10 2H12.5C16.9183 2 20.5 5.58172 20.5 10V22.5C20.5 26.9183 16.9183 30.5 12.5 30.5H10C5.58172 30.5 2 26.9183 2 22.5V10C2 5.58172 5.58172 2 10 2Z" stroke="#73C9D6" stroke-width="4"/>
<path d="M6.5 20.5V20.5C8.82234 22.532 12.2596 22.6314 14.6955 20.7369L15 20.5" stroke="#73C9D6" stroke-width="4" stroke-linecap="round"/>
<path d="M32 41.5V41.5C29.6777 39.468 26.2404 39.3686 23.8045 41.2631L23.5 41.5" stroke="#73C9D6" stroke-width="4" stroke-linecap="round"/>
<path d="M26 2H28.5C32.9183 2 36.5 5.58172 36.5 10V12.5" stroke="#73C9D6" stroke-width="4" stroke-linecap="round"/>
<path d="M13 48.5H10.5C6.08172 48.5 2.5 44.9183 2.5 40.5V38" stroke="#73C9D6" stroke-width="4" stroke-linecap="round"/>
</svg>
